STARTFONT 2.1
FONT -Adobe-Utopia-Bold-R-Normal--25-180-100-100-P-140-ISO8859-2
SIZE 18 100 100
FONTBOUNDINGBOX 35 29 -4 -6
STARTPROPERTIES 29
FOUNDRY "Adobe"
FAMILY_NAME "Utopia"
WEIGHT_NAME "Bold"
SLANT "R"
SETWIDTH_NAME "Normal"
ADD_STYLE_NAME ""
PIXEL_SIZE 25
POINT_SIZE 180
RESOLUTION_X 100
RESOLUTION_Y 100
SPACING "P"
AVERAGE_WIDTH 140
CHARSET_REGISTRY "ISO8859"
CHARSET_ENCODING "2"
CAP_HEIGHT 17
X_HEIGHT 12
RELATIVE_SETWIDTH 50
RELATIVE_WEIGHT 70
WEIGHT 218
FACE_NAME "Utopia Bold"
COPYRIGHT "Copyright (c) 1989, 1991 Adobe Systems Incorporated.  All Rights Reserved., Copyright 1996 Cub Soft"
NOTICE "Utopia is a registered trademark of Adobe Systems Incorporated."
DESTINATION 0
FONT_ASCENT 23
FONT_DESCENT 6
DEFAULT_CHAR 32
_ADOBE_PSFONT "Utopia-Bold"
_ADOBE_XFONT "-Adobe-Utopia-Bold-R-Normal--25-180-100-100-P-140-ISO8859-2"
_DEC_DEVICE_FONTNAMES "PS=Utopia-Bold"
ENDPROPERTIES
CHARS 191
STARTCHAR space
ENCODING 32
SWIDTH 210 0
DWIDTH 5 0
BBX 0 0 0 0
BITMAP
ENDCHAR
STARTCHAR exclam
ENCODING 33
SWIDTH 278 0
DWIDTH 7 0
BBX 5 18 1 0
BITMAP
70
f8
f8
f8
70
70
70
70
70
70
70
20
00
20
70
f8
f0
70
ENDCHAR
STARTCHAR quotedbl
ENCODING 34
SWIDTH 473 0
DWIDTH 12 0
BBX 8 7 2 11
BITMAP
e7
e7
e7
e7
66
66
42
ENDCHAR
STARTCHAR numbersign
ENCODING 35
SWIDTH 560 0
DWIDTH 14 0
BBX 13 18 1 -1
BITMAP
0230
0630
0620
0460
0c60
7ff8
7ff8
08c0
18c0
1880
fff0
fff0
3180
3300
2300
6300
6200
0400
ENDCHAR
STARTCHAR dollar
ENCODING 36
SWIDTH 560 0
DWIDTH 14 0
BBX 12 22 1 -3
BITMAP
0400
0400
1f80
75e0
64e0
e460
e400
fc00
fc00
7f80
3fc0
0fe0
07f0
04f0
4470
e470
f460
74c0
3f80
0400
0400
0400
ENDCHAR
STARTCHAR percent
ENCODING 37
SWIDTH 887 0
DWIDTH 22 0
BBX 20 18 1 0
BITMAP
000100
3c0300
77fe00
e38600
e38c00
e38800
e39800
e3b000
773000
3e67c0
004ee0
00dc70
019c70
019c70
031c70
021c70
060ee0
0c07c0
ENDCHAR
STARTCHAR ampersand
ENCODING 38
SWIDTH 748 0
DWIDTH 19 0
BBX 17 17 1 0
BITMAP
0f0000
18c000
38e000
38e000
38e000
3dc000
1f8700
1f0700
3f8700
77c600
f3e600
f1fc00
f0fc00
f87c00
7c3e00
3fef00
0f8780
ENDCHAR
STARTCHAR apostrophe
ENCODING 39
SWIDTH 252 0
DWIDTH 6 0
BBX 4 8 1 10
BITMAP
60
f0
70
70
60
60
40
80
ENDCHAR
STARTCHAR parenleft
ENCODING 40
SWIDTH 365 0
DWIDTH 9 0
BBX 6 21 2 -3
BITMAP
0c
1c
38
70
70
60
60
e0
e0
e0
e0
e0
e0
e0
60
60
70
70
38
1c
0c
ENDCHAR
STARTCHAR parenright
ENCODING 41
SWIDTH 365 0
DWIDTH 9 0
BBX 6 21 1 -3
BITMAP
c0
e0
70
38
38
18
18
1c
1c
1c
1c
1c
1c
1c
18
18
38
30
70
e0
c0
ENDCHAR
STARTCHAR asterisk
ENCODING 42
SWIDTH 442 0
DWIDTH 11 0
BBX 9 10 1 8
BITMAP
0800
1c00
c980
eb80
1c00
3e00
eb80
c980
1c00
0800
ENDCHAR
STARTCHAR plus
ENCODING 43
SWIDTH 600 0
DWIDTH 15 0
BBX 12 13 1 0
BITMAP
0600
0600
0600
0600
0600
0600
fff0
fff0
0600
0600
0600
0600
0600
ENDCHAR
STARTCHAR comma
ENCODING 44
SWIDTH 280 0
DWIDTH 7 0
BBX 4 9 2 -4
BITMAP
60
e0
f0
70
70
60
60
c0
80
ENDCHAR
STARTCHAR minus
ENCODING 45
SWIDTH 600 0
DWIDTH 15 0
BBX 12 2 1 5
BITMAP
fff0
fff0
ENDCHAR
STARTCHAR period
ENCODING 46
SWIDTH 280 0
DWIDTH 7 0
BBX 5 5 1 0
BITMAP
20
70
f8
70
20
ENDCHAR
STARTCHAR slash
ENCODING 47
SWIDTH 378 0
DWIDTH 9 0
BBX 8 18 1 0
BITMAP
07
06
06
0e
0e
0c
1c
1c
18
18
38
38
30
70
70
60
60
e0
ENDCHAR
STARTCHAR zero
ENCODING 48
SWIDTH 560 0
DWIDTH 14 0
BBX 12 17 1 0
BITMAP
0f00
39c0
79e0
70e0
70e0
f0f0
f0f0
f0f0
f0f0
f0f0
f0f0
f0f0
70e0
70e0
79e0
39c0
0f00
ENDCHAR
STARTCHAR one
ENCODING 49
SWIDTH 560 0
DWIDTH 14 0
BBX 8 17 3 0
BITMAP
0c
fc
7c
3c
3c
3c
3c
3c
3c
3c
3c
3c
3c
3c
3c
3c
ff
ENDCHAR
STARTCHAR two
ENCODING 50
SWIDTH 560 0
DWIDTH 14 0
BBX 14 17 0 0
BITMAP
0fc0
3cf0
7878
7878
3078
0078
0078
00f0
01e0
0380
0700
0e00
3800
780c
7ff8
fff8
fff8
ENDCHAR
STARTCHAR three
ENCODING 51
SWIDTH 560 0
DWIDTH 14 0
BBX 12 17 1 0
BITMAP
1f00
73c0
f1c0
e1e0
e1e0
01e0
01c0
03c0
3f00
01e0
00e0
00f0
60f0
e0f0
f0e0
71e0
1f80
ENDCHAR
STARTCHAR four
ENCODING 52
SWIDTH 560 0
DWIDTH 14 0
BBX 13 17 0 0
BITMAP
01e0
01e0
03e0
03e0
07e0
0de0
0de0
19e0
11e0
31e0
61e0
7ff8
fff8
01e0
01e0
01e0
07f8
ENDCHAR
STARTCHAR five
ENCODING 53
SWIDTH 560 0
DWIDTH 14 0
BBX 12 17 1 0
BITMAP
7fe0
7fe0
7fe0
6000
6000
6000
6700
5fc0
61e0
40f0
00f0
00f0
60f0
e0f0
f0e0
79c0
1f80
ENDCHAR
STARTCHAR six
ENCODING 54
SWIDTH 560 0
DWIDTH 14 0
BBX 12 17 1 0
BITMAP
07c0
18e0
3870
7070
7000
f000
f380
ffe0
f9e0
f0f0
f0f0
f0f0
70f0
70f0
70e0
39c0
0f80
ENDCHAR
STARTCHAR seven
ENCODING 55
SWIDTH 560 0
DWIDTH 14 0
BBX 12 17 1 0
BITMAP
7ff0
7ff0
7ff0
c060
8060
00c0
00c0
0180
0300
0300
0700
0e00
0e00
1e00
1e00
1e00
0c00
ENDCHAR
STARTCHAR eight
ENCODING 56
SWIDTH 560 0
DWIDTH 14 0
BBX 12 17 1 0
BITMAP
1f80
79e0
70e0
f0f0
f0f0
70e0
70e0
1980
3fc0
79e0
70e0
f0f0
f0f0
f0f0
70e0
79e0
1f80
ENDCHAR
STARTCHAR nine
ENCODING 57
SWIDTH 560 0
DWIDTH 14 0
BBX 12 17 1 0
BITMAP
1f00
39c0
70e0
f0e0
f0e0
f0f0
f0f0
f0f0
79f0
7ff0
1ef0
00f0
00e0
61e0
f1e0
71c0
1f00
ENDCHAR
STARTCHAR colon
ENCODING 58
SWIDTH 280 0
DWIDTH 7 0
BBX 5 13 1 0
BITMAP
20
70
f8
70
20
00
00
00
20
70
f8
70
20
ENDCHAR
STARTCHAR semicolon
ENCODING 59
SWIDTH 280 0
DWIDTH 7 0
BBX 5 17 1 -4
BITMAP
70
78
f8
70
20
00
00
00
30
78
78
38
38
30
20
40
80
ENDCHAR
STARTCHAR less
ENCODING 60
SWIDTH 600 0
DWIDTH 15 0
BBX 12 13 1 0
BITMAP
0010
0070
01f0
0fc0
3f00
f800
e000
f800
3e00
07c0
01f0
0070
0010
ENDCHAR
STARTCHAR equal
ENCODING 61
SWIDTH 600 0
DWIDTH 15 0
BBX 12 7 1 3
BITMAP
fff0
fff0
0000
0000
0000
fff0
fff0
ENDCHAR
STARTCHAR greater
ENCODING 62
SWIDTH 600 0
DWIDTH 15 0
BBX 12 13 1 0
BITMAP
8000
e000
f800
3f00
0fc0
01f0
0070
01f0
07c0
3e00
f800
e000
8000
ENDCHAR
STARTCHAR question
ENCODING 63
SWIDTH 456 0
DWIDTH 11 0
BBX 10 18 1 0
BITMAP
3e00
7380
f3c0
e3c0
23c0
0780
0f00
1e00
3c00
7800
7800
7f00
1c00
0800
1e00
1e00
1e00
0c00
ENDCHAR
STARTCHAR at
ENCODING 64
SWIDTH 833 0
DWIDTH 21 0
BBX 19 18 1 0
BITMAP
00fc00
038300
0e0180
1c00c0
387ec0
70ee60
71ce60
638e60
639e60
e39c60
e72c40
e73cc0
675d80
738e00
700000
380000
0e0600
03f800
ENDCHAR
STARTCHAR A
ENCODING 65
SWIDTH 644 0
DWIDTH 16 0
BBX 17 18 -1 0
BITMAP
01c000
01e000
03e000
03e000
02f000
06f000
06f000
04f000
047800
0c7800
0c7800
0ffc00
183c00
183c00
301e00
301e00
301e00
fc7f80
ENDCHAR
STARTCHAR B
ENCODING 66
SWIDTH 683 0
DWIDTH 17 0
BBX 15 18 1 0
BITMAP
ffe0
3c78
3c3c
3c3c
3c3c
3c38
3c38
3c70
3fe0
3c78
3c3c
3c1e
3c1e
3c1e
3c1e
3c1e
3c3c
fff0
ENDCHAR
STARTCHAR C
ENCODING 67
SWIDTH 689 0
DWIDTH 17 0
BBX 15 18 1 0
BITMAP
03f8
1e1e
3c06
7806
7802
7000
f000
f000
f000
f000
f000
f000
f002
7802
7806
3c06
1f1e
03f8
ENDCHAR
STARTCHAR D
ENCODING 68
SWIDTH 777 0
DWIDTH 19 0
BBX 17 18 1 0
BITMAP
fff000
3c3c00
3c1e00
3c0f00
3c0f00
3c0780
3c0780
3c0780
3c0780
3c0780
3c0780
3c0780
3c0700
3c0f00
3c0f00
3c1e00
3c3c00
ffe000
ENDCHAR
STARTCHAR E
ENCODING 69
SWIDTH 629 0
DWIDTH 16 0
BBX 14 18 1 0
BITMAP
fff8
3c38
3c18
3c18
3c08
3c00
3c20
3c60
3fe0
3c60
3c20
3c00
3c00
3c0c
3c0c
3c0c
3c1c
fff8
ENDCHAR
STARTCHAR F
ENCODING 70
SWIDTH 593 0
DWIDTH 15 0
BBX 13 18 1 0
BITMAP
fff8
3c38
3c18
3c08
3c00
3c00
3c10
3c10
3c30
3ff0
3c30
3c10
3c00
3c00
3c00
3c00
3c00
ff00
ENDCHAR
STARTCHAR G
ENCODING 71
SWIDTH 726 0
DWIDTH 18 0
BBX 16 18 1 0
BITMAP
03f8
0e1e
3c06
3806
7802
7000
f000
f000
f000
f000
f07f
f01e
701e
781e
781e
3c1e
1e1e
07f0
ENDCHAR
STARTCHAR H
ENCODING 72
SWIDTH 807 0
DWIDTH 20 0
BBX 18 18 1 0
BITMAP
ff3fc0
3c0f00
3c0f00
3c0f00
3c0f00
3c0f00
3c0f00
3c0f00
3fff00
3c0f00
3c0f00
3c0f00
3c0f00
3c0f00
3c0f00
3c0f00
3c0f00
ff3fc0
ENDCHAR
STARTCHAR I
ENCODING 73
SWIDTH 384 0
DWIDTH 10 0
BBX 8 18 1 0
BITMAP
ff
3c
3c
3c
3c
3c
3c
3c
3c
3c
3c
3c
3c
3c
3c
3c
3c
ff
ENDCHAR
STARTCHAR J
ENCODING 74
SWIDTH 386 0
DWIDTH 10 0
BBX 9 20 0 -2
BITMAP
7f80
1e00
1e00
1e00
1e00
1e00
1e00
1e00
1e00
1e00
1e00
1e00
1e00
1e00
1e00
1e00
1c00
3c00
3c00
e000
ENDCHAR
STARTCHAR K
ENCODING 75
SWIDTH 707 0
DWIDTH 18 0
BBX 17 18 1 0
BITMAP
ff1f80
3c0e00
3c1c00
3c3800
3c3000
3c6000
3cc000
3dc000
3fc000
3fe000
3df000
3df000
3cf800
3c7c00
3c7c00
3c3e00
3c1f00
ff0780
ENDCHAR
STARTCHAR L
ENCODING 76
SWIDTH 585 0
DWIDTH 15 0
BBX 14 18 1 0
BITMAP
ff00
3c00
3c00
3c00
3c00
3c00
3c00
3c00
3c00
3c00
3c00
3c00
3c00
3c04
3c0c
3c0c
3c1c
fff8
ENDCHAR
STARTCHAR M
ENCODING 77
SWIDTH 918 0
DWIDTH 23 0
BBX 22 18 0 0
BITMAP
fe01fc
3e01f0
3f01f0
3f03f0
3782f0
3786f0
3786f0
33c4f0
33ccf0
33ccf0
31e8f0
31f8f0
31f8f0
30f0f0
30f0f0
3070f0
3060f0
fc63fc
ENDCHAR
STARTCHAR N
ENCODING 78
SWIDTH 739 0
DWIDTH 18 0
BBX 18 18 0 0
BITMAP
fe0fc0
3e0300
3f0300
3f0300
378300
37c300
33c300
33e300
31f300
30f300
30fb00
307b00
303f00
303f00
301f00
301f00
300f00
fc0700
ENDCHAR
STARTCHAR O
ENCODING 79
SWIDTH 768 0
DWIDTH 19 0
BBX 17 18 1 0
BITMAP
03e000
1e3c00
3c1e00
780f00
780f00
f00700
f00780
f00780
f00780
f00780
f00780
f00780
f00700
780f00
780f00
3c1e00
1e3c00
03e000
ENDCHAR
STARTCHAR P
ENCODING 80
SWIDTH 650 0
DWIDTH 16 0
BBX 14 18 1 0
BITMAP
ffe0
3c78
3c78
3c3c
3c3c
3c3c
3c3c
3c3c
3c78
3c70
3fe0
3c00
3c00
3c00
3c00
3c00
3c00
ff00
ENDCHAR
STARTCHAR Q
ENCODING 81
SWIDTH 768 0
DWIDTH 19 0
BBX 17 23 1 -5
BITMAP
03e000
1e3c00
3c1e00
780f00
780f00
f00700
f00780
f00780
f00780
f00780
f00780
f00780
f00780
780f00
780f00
3c1e00
1e3c00
07f800
01f000
00f800
00fc00
003e00
000f00
ENDCHAR
STARTCHAR R
ENCODING 82
SWIDTH 684 0
DWIDTH 17 0
BBX 16 18 1 0
BITMAP
ffe0
3c78
3c7c
3c3c
3c3c
3c3c
3c3c
3c78
3c70
3fc0
3cf0
3c78
3c78
3c78
3c3c
3c3c
3c3c
ff1f
ENDCHAR
STARTCHAR S
ENCODING 83
SWIDTH 561 0
DWIDTH 14 0
BBX 12 18 1 0
BITMAP
1fc0
38e0
7060
f020
f020
f800
fc00
7f00
3fc0
1fe0
07e0
01f0
80f0
80f0
c0f0
e0e0
f1c0
3f00
ENDCHAR
STARTCHAR T
ENCODING 84
SWIDTH 624 0
DWIDTH 16 0
BBX 14 18 0 0
BITMAP
fffc
c78c
c78c
8784
8784
0780
0780
0780
0780
0780
0780
0780
0780
0780
0780
0780
0780
1fe0
ENDCHAR
STARTCHAR U
ENCODING 85
SWIDTH 786 0
DWIDTH 20 0
BBX 18 18 1 0
BITMAP
ff3fc0
3c0f00
3c0f00
3c0f00
3c0f00
3c0f00
3c0f00
3c0f00
3c0f00
3c0f00
3c0f00
3c0f00
3c0f00
3c0f00
3c0f00
1e1e00
0e1c00
03f000
ENDCHAR
STARTCHAR V
ENCODING 86
SWIDTH 645 0
DWIDTH 16 0
BBX 17 18 0 0
BITMAP
fe1f80
3c0600
3c0600
3c0600
1e0c00
1e0c00
1e0c00
0f0800
0f1800
0f1800
071000
07b000
07b000
07a000
03e000
03e000
03c000
01c000
ENDCHAR
STARTCHAR W
ENCODING 87
SWIDTH 933 0
DWIDTH 23 0
BBX 24 18 0 0
BITMAP
fe003f
3c1c0c
3c1c0c
3c1e0c
3c1e08
1e3e18
1e3e18
1e3f18
0e2710
0e6730
0e6730
0f67b0
0743a0
07c3a0
07c3e0
07c3e0
0381c0
0381c0
ENDCHAR
STARTCHAR X
ENCODING 88
SWIDTH 634 0
DWIDTH 16 0
BBX 18 18 -1 0
BITMAP
7f1f80
1e0600
1e0c00
0f0c00
0f9800
07f000
03f000
03e000
01e000
01f000
03f800
037800
077c00
063c00
0c3e00
1c1e00
3c1f00
fe3fc0
ENDCHAR
STARTCHAR Y
ENCODING 89
SWIDTH 617 0
DWIDTH 15 0
BBX 16 18 0 0
BITMAP
ff3f
3c0c
3c0c
1e18
1e18
0f10
0f30
0f20
07e0
07c0
03c0
03c0
03c0
03c0
03c0
03c0
03c0
0ff0
ENDCHAR
STARTCHAR Z
ENCODING 90
SWIDTH 614 0
DWIDTH 15 0
BBX 15 18 0 0
BITMAP
7ffe
707c
607c
40f8
41f0
01f0
03e0
03c0
07c0
0f80
0f80
1f00
3e00
3e06
7c06
780e
f81c
fffc
ENDCHAR
STARTCHAR bracketleft
ENCODING 91
SWIDTH 335 0
DWIDTH 8 0
BBX 4 21 3 -3
BITMAP
f0
c0
c0
c0
c0
c0
c0
c0
c0
c0
c0
c0
c0
c0
c0
c0
c0
c0
c0
c0
f0
ENDCHAR
STARTCHAR backslash
ENCODING 92
SWIDTH 379 0
DWIDTH 9 0
BBX 8 18 1 0
BITMAP
e0
60
60
70
70
30
38
38
18
18
1c
1c
0c
0e
0e
06
06
07
ENDCHAR
STARTCHAR bracketright
ENCODING 93
SWIDTH 335 0
DWIDTH 8 0
BBX 4 21 1 -3
BITMAP
f0
30
30
30
30
30
30
30
30
30
30
30
30
30
30
30
30
30
30
30
f0
ENDCHAR
STARTCHAR asciicircum
ENCODING 94
SWIDTH 600 0
DWIDTH 15 0
BBX 12 11 1 6
BITMAP
0600
0f00
0f00
1f80
1980
1980
39c0
30c0
70e0
6060
e070
ENDCHAR
STARTCHAR underscore
ENCODING 95
SWIDTH 500 0
DWIDTH 12 0
BBX 12 1 0 -3
BITMAP
fff0
ENDCHAR
STARTCHAR grave
ENCODING 96
SWIDTH 430 0
DWIDTH 11 0
BBX 7 6 1 13
BITMAP
40
e0
70
38
0c
02
ENDCHAR
STARTCHAR a
ENCODING 97
SWIDTH 544 0
DWIDTH 14 0
BBX 13 13 1 0
BITMAP
0f80
79c0
f1e0
71e0
21e0
0fe0
39e0
71e0
f1e0
f1e0
f1e0
7ff8
3ce0
ENDCHAR
STARTCHAR b
ENCODING 98
SWIDTH 605 0
DWIDTH 15 0
BBX 13 19 1 0
BITMAP
1800
f800
7800
7800
7800
7800
79c0
7ff0
7cf0
7878
7878
7878
7878
7878
7878
7870
7870
78e0
6fc0
ENDCHAR
STARTCHAR c
ENCODING 99
SWIDTH 494 0
DWIDTH 12 0
BBX 11 13 1 0
BITMAP
1f80
39e0
79e0
70e0
f000
f000
f000
f000
f000
7820
7c60
3fc0
1f00
ENDCHAR
STARTCHAR d
ENCODING 100
SWIDTH 605 0
DWIDTH 15 0
BBX 14 19 1 0
BITMAP
0030
01f0
00f0
00f0
00f0
00f0
0ff0
38f0
78f0
70f0
f0f0
f0f0
f0f0
f0f0
f0f0
78f0
78f0
3ff0
1cfc
ENDCHAR
STARTCHAR e
ENCODING 101
SWIDTH 519 0
DWIDTH 13 0
BBX 12 13 1 0
BITMAP
0f00
39c0
70e0
70e0
f0f0
f0f0
fff0
f000
f000
f830
7c20
3fc0
0f80
ENDCHAR
STARTCHAR f
ENCODING 102
SWIDTH 342 0
DWIDTH 9 0
BBX 10 19 0 0
BITMAP
0780
19c0
19c0
3c80
3c00
3c00
7f00
3c00
3c00
3c00
3c00
3c00
3c00
3c00
3c00
3c00
3c00
3c00
ff00
ENDCHAR
STARTCHAR g
ENCODING 103
SWIDTH 533 0
DWIDTH 13 0
BBX 12 19 1 -6
BITMAP
1f30
7bf0
f1c0
f1e0
f1e0
f1e0
71c0
3bc0
7f00
e000
ffc0
7fe0
3ff0
60f0
e070
e070
e060
78c0
1f00
ENDCHAR
STARTCHAR h
ENCODING 104
SWIDTH 631 0
DWIDTH 16 0
BBX 16 19 0 0
BITMAP
0c00
7c00
3c00
3c00
3c00
3c00
3cf0
3ff8
3e3c
3c3c
3c3c
3c3c
3c3c
3c3c
3c3c
3c3c
3c3c
3c3c
fe7f
ENDCHAR
STARTCHAR i
ENCODING 105
SWIDTH 316 0
DWIDTH 8 0
BBX 8 18 0 0
BITMAP
18
3c
3e
1c
00
1c
7c
3c
3c
3c
3c
3c
3c
3c
3c
3c
3c
ff
ENDCHAR
STARTCHAR j
ENCODING 106
SWIDTH 316 0
DWIDTH 8 0
BBX 8 24 -1 -6
BITMAP
06
0f
1f
0e
00
0e
3e
1e
1e
1e
1e
1e
1e
1e
1e
1e
1e
1e
1e
1e
1c
3c
78
e0
ENDCHAR
STARTCHAR k
ENCODING 107
SWIDTH 582 0
DWIDTH 15 0
BBX 15 19 0 0
BITMAP
0c00
7c00
3c00
3c00
3c00
3c00
3c3c
3c78
3ce0
3cc0
3d80
3f80
3fc0
3fe0
3de0
3cf0
3cf8
3c7c
ff3e
ENDCHAR
STARTCHAR l
ENCODING 108
SWIDTH 309 0
DWIDTH 8 0
BBX 8 19 0 0
BITMAP
0c
7c
3c
3c
3c
3c
3c
3c
3c
3c
3c
3c
3c
3c
3c
3c
3c
3c
ff
ENDCHAR
STARTCHAR m
ENCODING 109
SWIDTH 948 0
DWIDTH 24 0
BBX 24 13 0 0
BITMAP
1cf0f0
7ffbf8
3e7e7c
3c3c3c
3c3c3c
3c3c3c
3c3c3c
3c3c3c
3c3c3c
3c3c3c
3c3c3c
3c3c3c
fe7e7f
ENDCHAR
STARTCHAR n
ENCODING 110
SWIDTH 638 0
DWIDTH 16 0
BBX 16 13 0 0
BITMAP
1cf0
7ff8
3e3c
3c3c
3c3c
3c3c
3c3c
3c3c
3c3c
3c3c
3c3c
3c3c
fe7f
ENDCHAR
STARTCHAR o
ENCODING 111
SWIDTH 585 0
DWIDTH 15 0
BBX 13 13 1 0
BITMAP
0f80
38e0
78f0
7070
f078
f078
f078
f078
f078
7070
78f0
38e0
0f80
ENDCHAR
STARTCHAR p
ENCODING 112
SWIDTH 615 0
DWIDTH 15 0
BBX 15 19 0 -6
BITMAP
1c70
7dfc
3e3c
3c3e
3c1e
3c1e
3c1e
3c1e
3c1e
3c1c
3c3c
3e38
3fe0
3c00
3c00
3c00
3c00
3c00
ff00
ENDCHAR
STARTCHAR q
ENCODING 113
SWIDTH 597 0
DWIDTH 15 0
BBX 14 19 1 -6
BITMAP
0fb0
38f0
78f0
70f0
f0f0
f0f0
f0f0
f0f0
f0f0
78f0
78f0
3ff0
1ef0
00f0
00f0
00f0
00f0
00f0
03fc
ENDCHAR
STARTCHAR r
ENCODING 114
SWIDTH 440 0
DWIDTH 11 0
BBX 11 13 0 0
BITMAP
1cc0
7de0
3fe0
3cc0
3c00
3c00
3c00
3c00
3c00
3c00
3c00
3c00
ff00
ENDCHAR
STARTCHAR s
ENCODING 115
SWIDTH 446 0
DWIDTH 11 0
BBX 9 13 1 0
BITMAP
3f00
6380
e180
f080
f800
7e00
3f00
1f00
8780
8380
c380
e300
7e00
ENDCHAR
STARTCHAR t
ENCODING 116
SWIDTH 370 0
DWIDTH 9 0
BBX 8 16 1 0
BITMAP
18
38
38
fe
78
78
78
78
78
78
78
78
78
78
3f
1c
ENDCHAR
STARTCHAR u
ENCODING 117
SWIDTH 629 0
DWIDTH 16 0
BBX 15 13 1 0
BITMAP
3838
f8f8
7878
7878
7878
7878
7878
7878
7878
7878
7cf8
3ff8
1e7e
ENDCHAR
STARTCHAR v
ENCODING 118
SWIDTH 520 0
DWIDTH 13 0
BBX 14 13 0 0
BITMAP
fe7c
7838
3c30
3c30
3c20
1e60
1e60
1e40
0ec0
0fc0
0780
0780
0700
ENDCHAR
STARTCHAR w
ENCODING 119
SWIDTH 774 0
DWIDTH 19 0
BBX 20 13 0 0
BITMAP
fc71f0
7870e0
3878c0
3c78c0
3cf880
1cfc80
1cbd80
1e9d80
0f9d00
0f1f00
0f0f00
0f0e00
070e00
ENDCHAR
STARTCHAR x
ENCODING 120
SWIDTH 522 0
DWIDTH 13 0
BBX 15 13 -1 0
BITMAP
7e7c
3c30
1e60
0f60
0fc0
0780
07c0
07c0
07e0
0cf0
18f8
3878
fcfe
ENDCHAR
STARTCHAR y
ENCODING 121
SWIDTH 524 0
DWIDTH 13 0
BBX 14 19 0 -6
BITMAP
fe7c
7c38
3c30
3c30
1e20
1e60
0e60
0f40
0fc0
0780
0780
0380
0300
0300
0300
3200
3c00
7c00
3800
ENDCHAR
STARTCHAR z
ENCODING 122
SWIDTH 483 0
DWIDTH 12 0
BBX 12 13 0 0
BITMAP
7ff0
61e0
63e0
47c0
0780
0f80
0f00
1f00
3e00
3c30
7c30
f870
fff0
ENDCHAR
STARTCHAR braceleft
ENCODING 123
SWIDTH 365 0
DWIDTH 9 0
BBX 6 21 2 -3
BITMAP
1c
30
30
30
30
30
30
30
30
20
c0
30
30
30
30
30
30
30
30
30
1c
ENDCHAR
STARTCHAR bar
ENCODING 124
SWIDTH 284 0
DWIDTH 7 0
BBX 2 18 3 0
BITMAP
c0
c0
c0
c0
c0
c0
c0
c0
c0
c0
c0
c0
c0
c0
c0
c0
c0
c0
ENDCHAR
STARTCHAR braceright
ENCODING 125
SWIDTH 365 0
DWIDTH 9 0
BBX 6 21 1 -3
BITMAP
e0
30
30
30
30
30
30
30
30
30
0c
18
30
30
30
30
30
30
30
30
e0
ENDCHAR
STARTCHAR asciitilde
ENCODING 126
SWIDTH 600 0
DWIDTH 15 0
BBX 13 5 1 4
BITMAP
0010
3f18
7ff0
c3e0
4000
ENDCHAR
STARTCHAR nobreakspace
ENCODING 160
SWIDTH 210 0
DWIDTH 5 0
BBX 0 0 0 0
BITMAP
ENDCHAR
STARTCHAR Aogonek
ENCODING 161
SWIDTH 644 0
DWIDTH 16 0
BBX 17 24 -1 -6
BITMAP
01c000
01e000
03e000
03e000
02f000
06f000
06f000
04f000
047800
0c7800
0c7800
0ffc00
183c00
183c00
301e00
301e00
301e00
fc7f80
00c000
018000
010000
030000
030000
01e000
ENDCHAR
STARTCHAR breve
ENCODING 162
SWIDTH 430 0
DWIDTH 11 0
BBX 8 4 1 14
BITMAP
81
c3
7e
3c
ENDCHAR
STARTCHAR Lstroke
ENCODING 163
SWIDTH 591 0
DWIDTH 15 0
BBX 15 18 0 0
BITMAP
7f80
1e00
1e00
1e00
1e00
1e60
1ec0
1f80
1f00
1e00
1e00
7e00
5e00
9e02
1e06
1e06
1e0e
7ffc
ENDCHAR
STARTCHAR currency
ENCODING 164
SWIDTH 560 0
DWIDTH 14 0
BBX 12 13 1 2
BITMAP
4020
cf30
fff0
70e0
70e0
e070
e070
e070
70e0
70e0
fff0
cf30
4020
ENDCHAR
STARTCHAR Lcaron
ENCODING 165
SWIDTH 585 0
DWIDTH 15 0
BBX 14 20 1 0
BITMAP
0030
0078
ff38
3c38
3c30
3c30
3c20
3c40
3c00
3c00
3c00
3c00
3c00
3c00
3c00
3c04
3c0c
3c0c
3c1c
fff8
ENDCHAR
STARTCHAR Sacute
ENCODING 166
SWIDTH 561 0
DWIDTH 14 0
BBX 12 25 1 0
BITMAP
0020
0070
00e0
01c0
0300
0400
0000
1fc0
38e0
7060
f020
f020
f800
fc00
7f00
3fc0
1fe0
07e0
01f0
80f0
80f0
c0f0
e0e0
f1c0
3f00
ENDCHAR
STARTCHAR section
ENCODING 167
SWIDTH 566 0
DWIDTH 14 0
BBX 12 21 1 -3
BITMAP
0f00
13c0
31c0
3000
3c00
7e00
4f80
cfc0
c3e0
e1f0
f0f0
7870
3e30
1f20
0fa0
07e0
01c0
10c0
38c0
3880
0f00
ENDCHAR
STARTCHAR diaeresis
ENCODING 168
SWIDTH 430 0
DWIDTH 11 0
BBX 10 4 0 14
BITMAP
6180
f3c0
f3c0
6180
ENDCHAR
STARTCHAR Scaron
ENCODING 169
SWIDTH 561 0
DWIDTH 14 0
BBX 12 25 1 0
BITMAP
4040
2080
3b80
1f00
0e00
0400
0000
1fc0
38e0
7060
f020
f020
f800
fc00
7f00
3fc0
1fe0
07e0
01f0
80f0
80f0
c0f0
e0e0
f1c0
3f00
ENDCHAR
STARTCHAR Scedilla
ENCODING 170
SWIDTH 561 0
DWIDTH 14 0
BBX 12 24 1 -6
BITMAP
1fc0
38e0
7060
f020
f020
f800
fc00
7f00
3fc0
1fe0
07e0
01f0
80f0
80f0
c0f0
e0e0
f1c0
3f00
0c00
0c00
1f00
0700
0700
1c00
ENDCHAR
STARTCHAR Tcaron
ENCODING 171
SWIDTH 624 0
DWIDTH 16 0
BBX 14 25 0 0
BITMAP
2020
1040
1dc0
0f80
0700
0200
0000
fffc
c78c
c78c
8784
8784
0780
0780
0780
0780
0780
0780
0780
0780
0780
0780
0780
0780
1fe0
ENDCHAR
STARTCHAR Zacute
ENCODING 172
SWIDTH 614 0
DWIDTH 15 0
BBX 15 25 0 0
BITMAP
0008
001c
0038
0070
00c0
0100
0000
7ffe
707c
607c
40f8
41f0
01f0
03e0
03c0
07c0
0f80
0f80
1f00
3e00
3e06
7c06
780e
f81c
fffc
ENDCHAR
STARTCHAR hyphen
ENCODING 173
SWIDTH 392 0
DWIDTH 10 0
BBX 7 2 1 5
BITMAP
fe
fe
ENDCHAR
STARTCHAR Zcaron
ENCODING 174
SWIDTH 614 0
DWIDTH 15 0
BBX 15 25 0 0
BITMAP
1010
0820
0ee0
07c0
0380
0100
0000
7ffe
707c
607c
40f8
41f0
01f0
03e0
03c0
07c0
0f80
0f80
1f00
3e00
3e06
7c06
780e
f81c
fffc
ENDCHAR
STARTCHAR Zabovedot
ENCODING 175
SWIDTH 614 0
DWIDTH 15 0
BBX 15 23 0 0
BITMAP
0180
03c0
03c0
0180
0000
7ffe
707c
607c
40f8
41f0
01f0
03e0
03c0
07c0
0f80
0f80
1f00
3e00
3e06
7c06
780e
f81c
fffc
ENDCHAR
STARTCHAR degree
ENCODING 176
SWIDTH 396 0
DWIDTH 10 0
BBX 8 8 1 9
BITMAP
3c
66
c3
c3
c3
c3
66
3c
ENDCHAR
STARTCHAR aogonek
ENCODING 177
SWIDTH 544 0
DWIDTH 14 0
BBX 13 19 1 -6
BITMAP
0f80
79c0
f1e0
71e0
21e0
0fe0
39e0
71e0
f1e0
f1e0
f1e0
7ff8
3ce0
0300
0600
0400
0c00
0c00
0780
ENDCHAR
STARTCHAR ogonek
ENCODING 178
SWIDTH 430 0
DWIDTH 11 0
BBX 5 6 3 -6
BITMAP
30
60
40
c0
c0
78
ENDCHAR
STARTCHAR lstroke
ENCODING 179
SWIDTH 321 0
DWIDTH 8 0
BBX 8 19 0 0
BITMAP
0c
7c
3c
3c
3c
3c
3d
3f
3e
3c
3c
7c
fc
bc
3c
3c
3c
3c
ff
ENDCHAR
STARTCHAR acute
ENCODING 180
SWIDTH 430 0
DWIDTH 11 0
BBX 7 6 3 13
BITMAP
04
0e
1c
38
60
80
ENDCHAR
STARTCHAR lcaron
ENCODING 181
SWIDTH 440 0
DWIDTH 11 0
BBX 11 21 0 0
BITMAP
00c0
01e0
0ce0
7ce0
3cc0
3cc0
3c80
3d00
3c00
3c00
3c00
3c00
3c00
3c00
3c00
3c00
3c00
3c00
3c00
3c00
ff00
ENDCHAR
STARTCHAR sacute
ENCODING 182
SWIDTH 446 0
DWIDTH 11 0
BBX 11 20 1 0
BITMAP
0040
00e0
01c0
0380
0600
0800
0000
3f00
6380
e180
f080
f800
7e00
3f00
1f00
8780
8380
c380
e300
7e00
ENDCHAR
STARTCHAR caron
ENCODING 183
SWIDTH 430 0
DWIDTH 11 0
BBX 9 6 1 13
BITMAP
8080
4100
7700
3e00
1c00
0800
ENDCHAR
STARTCHAR cedilla
ENCODING 184
SWIDTH 430 0
DWIDTH 11 0
BBX 5 6 4 -6
BITMAP
60
60
f8
38
38
e0
ENDCHAR
STARTCHAR scaron
ENCODING 185
SWIDTH 446 0
DWIDTH 11 0
BBX 9 20 1 0
BITMAP
8080
4100
7700
3e00
1c00
0800
0000
3f00
6380
e180
f080
f800
7e00
3f00
1f00
8780
8380
c380
e300
7e00
ENDCHAR
STARTCHAR scedilla
ENCODING 186
SWIDTH 446 0
DWIDTH 11 0
BBX 9 19 1 -6
BITMAP
3f00
6380
e180
f080
f800
7e00
3f00
1f00
8780
8380
c380
e300
7e00
1800
1800
3e00
0e00
0e00
3800
ENDCHAR
STARTCHAR tcaron
ENCODING 187
SWIDTH 440 0
DWIDTH 11 0
BBX 10 22 1 0
BITMAP
0180
03c0
01c0
01c0
0180
0180
1900
3a00
3800
fe00
7800
7800
7800
7800
7800
7800
7800
7800
7800
7800
3f00
1c00
ENDCHAR
STARTCHAR zacute
ENCODING 188
SWIDTH 483 0
DWIDTH 12 0
BBX 13 20 0 0
BITMAP
0010
0038
0070
00e0
0180
0200
0000
7ff0
61e0
63e0
47c0
0780
0f80
0f00
1f00
3e00
3c30
7c30
f870
fff0
ENDCHAR
STARTCHAR doubleacute
ENCODING 189
SWIDTH 430 0
DWIDTH 11 0
BBX 10 6 1 13
BITMAP
3180
39c0
7180
6300
4200
8600
ENDCHAR
STARTCHAR zcaron
ENCODING 190
SWIDTH 483 0
DWIDTH 12 0
BBX 12 20 0 0
BITMAP
2020
1040
1dc0
0f80
0700
0200
0000
7ff0
61e0
63e0
47c0
0780
0f80
0f00
1f00
3e00
3c30
7c30
f870
fff0
ENDCHAR
STARTCHAR zabovedot
ENCODING 191
SWIDTH 483 0
DWIDTH 12 0
BBX 12 18 0 0
BITMAP
0300
0780
0780
0300
0000
7ff0
61e0
63e0
47c0
0780
0f80
0f00
1f00
3e00
3c30
7c30
f870
fff0
ENDCHAR
STARTCHAR Racute
ENCODING 192
SWIDTH 684 0
DWIDTH 17 0
BBX 16 25 1 0
BITMAP
0010
0038
0070
00e0
0180
0200
0000
ffe0
3c78
3c7c
3c3c
3c3c
3c3c
3c3c
3c78
3c70
3fc0
3cf0
3c78
3c78
3c78
3c3c
3c3c
3c3c
ff1f
ENDCHAR
STARTCHAR Aacute
ENCODING 193
SWIDTH 644 0
DWIDTH 16 0
BBX 17 23 -1 0
BITMAP
003800
007800
00f000
038000
000000
01c000
01e000
03e000
03e000
02f000
06f000
06f000
04f000
047800
0c7800
0c7800
0ffc00
183c00
183c00
301e00
301e00
301e00
fc7f80
ENDCHAR
STARTCHAR Acircumflex
ENCODING 194
SWIDTH 644 0
DWIDTH 16 0
BBX 17 23 -1 0
BITMAP
008000
01e000
03f000
0e1800
000000
01c000
01e000
03e000
03e000
02f000
06f000
06f000
04f000
047800
0c7800
0c7800
0ffc00
183c00
183c00
301e00
301e00
301e00
fc7f80
ENDCHAR
STARTCHAR Abreve
ENCODING 195
SWIDTH 644 0
DWIDTH 16 0
BBX 17 23 -1 0
BITMAP
040800
061800
03f000
01e000
000000
01c000
01e000
03e000
03e000
02f000
06f000
06f000
04f000
047800
0c7800
0c7800
0ffc00
183c00
183c00
301e00
301e00
301e00
fc7f80
ENDCHAR
STARTCHAR Adiaeresis
ENCODING 196
SWIDTH 644 0
DWIDTH 16 0
BBX 18 22 -1 0
BITMAP
061800
0f3c00
0f3c00
061800
01e000
01e000
01f000
03f000
03f000
02f800
067800
067800
047c00
0c3c00
0c3c00
0ffe00
181e00
181e00
101f00
300f00
300f00
fc3fc0
ENDCHAR
STARTCHAR Lacute
ENCODING 197
SWIDTH 585 0
DWIDTH 15 0
BBX 14 25 1 0
BITMAP
0080
01c0
0380
0700
0c00
1000
0000
ff00
3c00
3c00
3c00
3c00
3c00
3c00
3c00
3c00
3c00
3c00
3c00
3c00
3c04
3c0c
3c0c
3c1c
fff8
ENDCHAR
STARTCHAR Cacute
ENCODING 198
SWIDTH 689 0
DWIDTH 17 0
BBX 15 25 1 0
BITMAP
0004
000e
001c
0038
0060
0080
0000
03f8
1e1e
3c06
7806
7802
7000
f000
f000
f000
f000
f000
f000
f002
7802
7806
3c06
1f1e
03f8
ENDCHAR
STARTCHAR Ccedilla
ENCODING 199
SWIDTH 689 0
DWIDTH 17 0
BBX 15 24 1 -6
BITMAP
03f8
1e0e
3c06
7806
7802
7000
f000
f000
f000
f000
f000
f000
f002
7802
7806
3c06
0f0e
03f8
00c0
01c0
01f0
0070
0070
03c0
ENDCHAR
STARTCHAR Ccaron
ENCODING 200
SWIDTH 689 0
DWIDTH 17 0
BBX 15 25 1 0
BITMAP
0808
0410
0770
03e0
01c0
0080
0000
03f8
1e1e
3c06
7806
7802
7000
f000
f000
f000
f000
f000
f000
f002
7802
7806
3c06
1f1e
03f8
ENDCHAR
STARTCHAR Eacute
ENCODING 201
SWIDTH 629 0
DWIDTH 16 0
BBX 14 23 1 0
BITMAP
0070
00f0
01e0
0700
0000
fff8
3c38
3c18
3c18
3c08
3c00
3c20
3c60
3fe0
3c60
3c20
3c00
3c00
3c0c
3c0c
3c0c
3c1c
fff8
ENDCHAR
STARTCHAR Eogonek
ENCODING 202
SWIDTH 629 0
DWIDTH 16 0
BBX 14 24 1 -6
BITMAP
fff8
3c38
3c18
3c18
3c08
3c00
3c20
3c60
3fe0
3c60
3c20
3c00
3c00
3c0c
3c0c
3c0c
3c1c
fff8
0300
0600
0400
0c00
0c00
0780
ENDCHAR
STARTCHAR Ediaeresis
ENCODING 203
SWIDTH 629 0
DWIDTH 16 0
BBX 14 22 1 0
BITMAP
1860
3cf0
3cf0
1860
fff8
3c38
3c18
3c18
3c08
3c00
3c20
3c60
3fe0
3c60
3c20
3c00
3c00
3c0c
3c0c
3c0c
3c1c
fff8
ENDCHAR
STARTCHAR Ecaron
ENCODING 204
SWIDTH 629 0
DWIDTH 16 0
BBX 14 25 1 0
BITMAP
2020
1040
1dc0
0f80
0700
0200
0000
fff8
3c38
3c18
3c18
3c08
3c00
3c20
3c60
3fe0
3c60
3c20
3c00
3c00
3c0c
3c0c
3c0c
3c1c
fff8
ENDCHAR
STARTCHAR Iacute
ENCODING 205
SWIDTH 384 0
DWIDTH 10 0
BBX 8 23 1 0
BITMAP
03
0f
1e
70
00
ff
3c
3c
3c
3c
3c
3c
3c
3c
3c
3c
3c
3c
3c
3c
3c
3c
ff
ENDCHAR
STARTCHAR Icircumflex
ENCODING 206
SWIDTH 384 0
DWIDTH 10 0
BBX 10 23 0 0
BITMAP
0c00
1e00
3f00
e1c0
0000
7f80
1e00
1e00
1e00
1e00
1e00
1e00
1e00
1e00
1e00
1e00
1e00
1e00
1e00
1e00
1e00
1e00
7f80
ENDCHAR
STARTCHAR Dcaron
ENCODING 207
SWIDTH 777 0
DWIDTH 19 0
BBX 17 25 1 0
BITMAP
101000
082000
0ee000
07c000
038000
010000
000000
fff000
3c3c00
3c1e00
3c0f00
3c0f00
3c0780
3c0780
3c0780
3c0780
3c0780
3c0780
3c0780
3c0700
3c0f00
3c0f00
3c1e00
3c3c00
ffe000
ENDCHAR
STARTCHAR Dstroke
ENCODING 208
SWIDTH 783 0
DWIDTH 20 0
BBX 17 18 1 0
BITMAP
fff000
3c3c00
3c1e00
3c0f00
3c0f00
3c0780
3c0780
3c0780
ff8780
3c0780
3c0780
3c0780
3c0700
3c0f00
3c0f00
3c1e00
3c3c00
ffe000
ENDCHAR
STARTCHAR Nacute
ENCODING 209
SWIDTH 739 0
DWIDTH 18 0
BBX 18 25 0 0
BITMAP
000400
000e00
001c00
003800
006000
008000
000000
fe0fc0
3e0300
3f0300
3f0300
378300
37c300
33c300
33e300
31f300
30f300
30fb00
307b00
303f00
303f00
301f00
301f00
300f00
fc0700
ENDCHAR
STARTCHAR Ncaron
ENCODING 210
SWIDTH 739 0
DWIDTH 18 0
BBX 18 25 0 0
BITMAP
080800
041000
077000
03e000
01c000
008000
000000
fe0fc0
3e0300
3f0300
3f0300
378300
37c300
33c300
33e300
31f300
30f300
30fb00
307b00
303f00
303f00
301f00
301f00
300f00
fc0700
ENDCHAR
STARTCHAR Oacute
ENCODING 211
SWIDTH 768 0
DWIDTH 19 0
BBX 17 23 1 0
BITMAP
001800
007800
00f800
03c000
020000
03e000
1e3c00
3c1e00
780f00
780f00
f00700
f00780
f00780
f00780
f00780
f00780
f00780
f00700
780f00
780f00
3c1e00
1e3c00
03e000
ENDCHAR
STARTCHAR Ocircumflex
ENCODING 212
SWIDTH 768 0
DWIDTH 19 0
BBX 17 23 1 0
BITMAP
008000
03e000
07f000
0e3800
100400
03e000
1e3c00
3c1e00
780f00
780f00
f00700
f00780
f00780
f00780
f00780
f00780
f00780
f00700
780f00
780f00
3c1e00
1e3c00
03e000
ENDCHAR
STARTCHAR Odoubleacute
ENCODING 213
SWIDTH 768 0
DWIDTH 19 0
BBX 17 25 1 0
BITMAP
018c00
01ce00
038c00
031800
021000
043000
000000
03e000
1e3c00
3c1e00
780f00
780f00
f00700
f00780
f00780
f00780
f00780
f00780
f00780
f00700
780f00
780f00
3c1e00
1e3c00
03e000
ENDCHAR
STARTCHAR Odiaeresis
ENCODING 214
SWIDTH 768 0
DWIDTH 19 0
BBX 17 22 1 0
BITMAP
0c1800
1e3c00
1e3c00
0c1800
03e000
1e3c00
3c1e00
780f00
780f00
f00700
f00780
f00780
f00780
f00780
f00780
f00780
f00700
780f00
780f00
3c1e00
1e3c00
03e000
ENDCHAR
STARTCHAR multiply
ENCODING 215
SWIDTH 600 0
DWIDTH 15 0
BBX 11 11 2 1
BITMAP
4040
e0e0
71c0
3b80
1f00
0e00
1f00
3b80
71c0
e0e0
4040
ENDCHAR
STARTCHAR Rcaron
ENCODING 216
SWIDTH 684 0
DWIDTH 17 0
BBX 16 25 1 0
BITMAP
2020
1040
1dc0
0f80
0700
0200
0000
ffe0
3c78
3c7c
3c3c
3c3c
3c3c
3c3c
3c78
3c70
3fc0
3cf0
3c78
3c78
3c78
3c3c
3c3c
3c3c
ff1f
ENDCHAR
STARTCHAR Uring
ENCODING 217
SWIDTH 786 0
DWIDTH 20 0
BBX 18 24 1 0
BITMAP
01c000
063000
063000
063000
01c000
000000
ff3fc0
3c0f00
3c0f00
3c0f00
3c0f00
3c0f00
3c0f00
3c0f00
3c0f00
3c0f00
3c0f00
3c0f00
3c0f00
3c0f00
3c0f00
1e1e00
0e1c00
03f000
ENDCHAR
STARTCHAR Uacute
ENCODING 218
SWIDTH 786 0
DWIDTH 20 0
BBX 18 23 1 0
BITMAP
001800
003c00
00f800
01c000
000000
ff3fc0
3c0f00
3c0f00
3c0f00
3c0f00
3c0f00
3c0f00
3c0f00
3c0f00
3c0f00
3c0f00
3c0f00
3c0f00
3c0f00
3c0f00
1e1e00
0e1c00
03f000
ENDCHAR
STARTCHAR Udoubleacute
ENCODING 219
SWIDTH 786 0
DWIDTH 20 0
BBX 18 25 1 0
BITMAP
018c00
01ce00
038c00
031800
021000
043000
000000
ff3fc0
3c0f00
3c0f00
3c0f00
3c0f00
3c0f00
3c0f00
3c0f00
3c0f00
3c0f00
3c0f00
3c0f00
3c0f00
3c0f00
3c0f00
1e1e00
0e1c00
03f000
ENDCHAR
STARTCHAR Udiaeresis
ENCODING 220
SWIDTH 786 0
DWIDTH 20 0
BBX 18 22 1 0
BITMAP
061800
0f3c00
0f3c00
061800
ff3fc0
3c0f00
3c0f00
3c0f00
3c0f00
3c0f00
3c0f00
3c0f00
3c0f00
3c0f00
3c0f00
3c0f00
3c0f00
3c0f00
3c0f00
1e1e00
0e1c00
03f000
ENDCHAR
STARTCHAR Yacute
ENCODING 221
SWIDTH 617 0
DWIDTH 15 0
BBX 16 23 0 0
BITMAP
0038
0078
00f0
0380
0000
ff3f
3c0c
3c0c
1e18
1e18
0f10
0f30
0f20
07e0
07c0
03c0
03c0
03c0
03c0
03c0
03c0
03c0
0ff0
ENDCHAR
STARTCHAR Tcedilla
ENCODING 222
SWIDTH 624 0
DWIDTH 16 0
BBX 14 24 0 -6
BITMAP
fffc
c78c
c78c
8784
8784
0780
0780
0780
0780
0780
0780
0780
0780
0780
0780
0780
0780
1fe0
0600
0600
0f80
0380
0380
0e00
ENDCHAR
STARTCHAR ssharp
ENCODING 223
SWIDTH 662 0
DWIDTH 17 0
BBX 15 19 1 0
BITMAP
0fe0
1c78
3c38
383c
783c
7838
7870
78c0
79c0
79c0
79e0
79f8
78fc
787c
783e
781e
788e
79cc
fef8
ENDCHAR
STARTCHAR racute
ENCODING 224
SWIDTH 440 0
DWIDTH 11 0
BBX 12 20 0 0
BITMAP
0020
0070
00e0
01c0
0300
0400
0000
1cc0
7de0
3fe0
3cc0
3c00
3c00
3c00
3c00
3c00
3c00
3c00
3c00
ff00
ENDCHAR
STARTCHAR aacute
ENCODING 225
SWIDTH 544 0
DWIDTH 14 0
BBX 13 19 1 0
BITMAP
0040
01e0
03c0
0700
0e00
0800
0f80
79c0
f1e0
71e0
21e0
0fe0
39e0
71e0
f1e0
f1e0
f1e0
7ff8
3ce0
ENDCHAR
STARTCHAR acircumflex
ENCODING 226
SWIDTH 544 0
DWIDTH 14 0
BBX 13 19 1 0
BITMAP
0400
0f00
1f00
1980
20e0
4040
0f80
79c0
f1e0
71e0
21e0
0fe0
39e0
71e0
f1e0
f1e0
f1e0
7ff8
3ce0
ENDCHAR
STARTCHAR abreve
ENCODING 227
SWIDTH 544 0
DWIDTH 14 0
BBX 13 18 1 0
BITMAP
2040
30c0
1f80
0f00
0000
0f80
79c0
f1e0
71e0
21e0
0fe0
39e0
71e0
f1e0
f1e0
f1e0
7ff8
3ce0
ENDCHAR
STARTCHAR adiaeresis
ENCODING 228
SWIDTH 544 0
DWIDTH 14 0
BBX 13 18 1 0
BITMAP
30c0
79e0
79e0
30c0
0000
0f80
79c0
f1e0
71e0
21e0
0fe0
39e0
71e0
f1e0
f1e0
f1e0
7ff8
3ce0
ENDCHAR
STARTCHAR lacute
ENCODING 229
SWIDTH 309 0
DWIDTH 8 0
BBX 10 26 0 0
BITMAP
0080
01c0
0380
0700
0c00
1000
0000
0c00
7c00
3c00
3c00
3c00
3c00
3c00
3c00
3c00
3c00
3c00
3c00
3c00
3c00
3c00
3c00
3c00
3c00
ff00
ENDCHAR
STARTCHAR cacute
ENCODING 230
SWIDTH 494 0
DWIDTH 12 0
BBX 12 20 1 0
BITMAP
0020
0070
00e0
01c0
0300
0400
0000
1f80
39e0
79e0
70e0
f000
f000
f000
f000
f000
7820
7c60
3fc0
1f00
ENDCHAR
STARTCHAR ccedilla
ENCODING 231
SWIDTH 494 0
DWIDTH 12 0
BBX 11 19 1 -6
BITMAP
1f00
39c0
71e0
71c0
f000
f000
f000
f000
f000
7860
78c0
3f80
1e00
0400
0c00
0f00
0700
0700
1c00
ENDCHAR
STARTCHAR ccaron
ENCODING 232
SWIDTH 494 0
DWIDTH 12 0
BBX 11 20 1 0
BITMAP
4040
2080
3b80
1f00
0e00
0400
0000
1f80
39e0
79e0
70e0
f000
f000
f000
f000
f000
7820
7c60
3fc0
1f00
ENDCHAR
STARTCHAR eacute
ENCODING 233
SWIDTH 519 0
DWIDTH 13 0
BBX 12 19 1 0
BITMAP
0040
00e0
01c0
0780
0e00
0800
0f00
39c0
70e0
70e0
f0f0
f0f0
fff0
f000
f000
f830
7c20
3fc0
0f80
ENDCHAR
STARTCHAR eogonek
ENCODING 234
SWIDTH 519 0
DWIDTH 13 0
BBX 12 19 1 -6
BITMAP
0f00
39c0
70e0
70e0
f0f0
f0f0
fff0
f000
f000
f830
7c20
3fc0
0f80
0600
0c00
0800
1800
1800
0f00
ENDCHAR
STARTCHAR ediaeresis
ENCODING 235
SWIDTH 519 0
DWIDTH 13 0
BBX 12 18 1 0
BITMAP
30c0
79e0
79e0
30c0
0000
0f00
39c0
70e0
70e0
f0f0
f0f0
fff0
f000
f000
f830
7860
3fc0
0f80
ENDCHAR
STARTCHAR ecaron
ENCODING 236
SWIDTH 519 0
DWIDTH 13 0
BBX 12 20 1 0
BITMAP
4040
2080
3b80
1f00
0e00
0400
0000
0f00
39c0
70e0
70e0
f0f0
f0f0
fff0
f000
f000
f830
7c20
3fc0
0f80
ENDCHAR
STARTCHAR iacute
ENCODING 237
SWIDTH 316 0
DWIDTH 8 0
BBX 8 19 0 0
BITMAP
03
07
0e
1c
30
40
1c
7c
3c
3c
3c
3c
3c
3c
3c
3c
3c
3c
ff
ENDCHAR
STARTCHAR icircumflex
ENCODING 238
SWIDTH 316 0
DWIDTH 8 0
BBX 9 19 -1 0
BITMAP
0800
1c00
3e00
7300
c180
8080
0e00
3e00
1e00
1e00
1e00
1e00
1e00
1e00
1e00
1e00
1e00
1e00
7f80
ENDCHAR
STARTCHAR dcaron
ENCODING 239
SWIDTH 720 0
DWIDTH 18 0
BBX 17 21 1 0
BITMAP
000300
000780
003380
01f380
00f300
00f300
00f200
00f400
0ff000
38f000
78f000
70f000
f0f000
f0f000
f0f000
f0f000
f0f000
78f000
78f000
3ff000
1cfc00
ENDCHAR
STARTCHAR dstroke
ENCODING 240
SWIDTH 640 0
DWIDTH 16 0
BBX 15 19 1 0
BITMAP
0030
01f0
00f0
07fe
07fe
00f0
0ff0
38f0
78f0
70f0
f0f0
f0f0
f0f0
f0f0
f0f0
78f0
78f0
3ff0
1cfc
ENDCHAR
STARTCHAR nacute
ENCODING 241
SWIDTH 638 0
DWIDTH 16 0
BBX 16 20 0 0
BITMAP
0008
001c
0038
0070
00c0
0100
0000
1cf0
7ff8
3e3c
3c3c
3c3c
3c3c
3c3c
3c3c
3c3c
3c3c
3c3c
3c3c
fe7f
ENDCHAR
STARTCHAR ncaron
ENCODING 242
SWIDTH 638 0
DWIDTH 16 0
BBX 16 20 0 0
BITMAP
1010
0820
0ee0
07c0
0380
0100
0000
1cf0
7ff8
3e3c
3c3c
3c3c
3c3c
3c3c
3c3c
3c3c
3c3c
3c3c
3c3c
fe7f
ENDCHAR
STARTCHAR oacute
ENCODING 243
SWIDTH 585 0
DWIDTH 15 0
BBX 13 19 1 0
BITMAP
0040
00e0
01e0
0380
0600
0800
0f80
38e0
78f0
7070
f078
f078
f078
f078
f078
7070
78f0
38e0
0f80
ENDCHAR
STARTCHAR ocircumflex
ENCODING 244
SWIDTH 585 0
DWIDTH 15 0
BBX 13 19 1 0
BITMAP
0200
0700
0f80
18c0
3060
2020
0f80
38e0
78f0
7070
f078
f078
f078
f078
f078
7070
78f0
38e0
0f80
ENDCHAR
STARTCHAR odoubleacute
ENCODING 245
SWIDTH 585 0
DWIDTH 15 0
BBX 13 20 1 0
BITMAP
0630
0738
0e30
0c60
0840
10c0
0000
0f80
38e0
78f0
7070
f078
f078
f078
f078
f078
7070
78f0
38e0
0f80
ENDCHAR
STARTCHAR odiaeresis
ENCODING 246
SWIDTH 585 0
DWIDTH 15 0
BBX 13 18 1 0
BITMAP
30c0
79e0
79e0
30c0
0000
0f80
38e0
78f0
7070
f078
f078
f078
f078
f078
7070
78f0
38e0
0f80
ENDCHAR
STARTCHAR division
ENCODING 247
SWIDTH 600 0
DWIDTH 15 0
BBX 12 12 2 0
BITMAP
0600
0f00
0f00
0600
0000
fff0
fff0
0000
0600
0f00
0f00
0600
ENDCHAR
STARTCHAR rcaron
ENCODING 248
SWIDTH 440 0
DWIDTH 11 0
BBX 11 20 0 0
BITMAP
4040
2080
3b80
1f00
0e00
0400
0000
1cc0
7de0
3fe0
3cc0
3c00
3c00
3c00
3c00
3c00
3c00
3c00
3c00
ff00
ENDCHAR
STARTCHAR uring
ENCODING 249
SWIDTH 629 0
DWIDTH 16 0
BBX 15 19 1 0
BITMAP
0700
18c0
18c0
18c0
0700
0000
3838
f8f8
7878
7878
7878
7878
7878
7878
7878
7878
7cf8
3ff8
1e7e
ENDCHAR
STARTCHAR uacute
ENCODING 250
SWIDTH 629 0
DWIDTH 16 0
BBX 15 19 1 0
BITMAP
0020
00f0
01e0
0380
0700
0400
3838
f8f8
7878
7878
7878
7878
7878
7878
7878
7878
7cf8
3ff8
1e7e
ENDCHAR
STARTCHAR udoubleacute
ENCODING 251
SWIDTH 629 0
DWIDTH 16 0
BBX 15 20 1 0
BITMAP
0630
0738
0e30
0c60
0840
10c0
0000
3838
f8f8
7878
7878
7878
7878
7878
7878
7878
7878
7cf8
3ff8
1e7e
ENDCHAR
STARTCHAR udiaeresis
ENCODING 252
SWIDTH 629 0
DWIDTH 16 0
BBX 15 18 1 0
BITMAP
1860
3cf0
3cf0
1860
0000
3838
f8f8
7878
7878
7878
7878
7878
7878
7878
7878
7cf8
3ff8
1e7e
ENDCHAR
STARTCHAR yacute
ENCODING 253
SWIDTH 524 0
DWIDTH 13 0
BBX 14 25 0 -6
BITMAP
0030
0070
00e0
01c0
0300
0200
fe7c
7c38
3c30
3c30
1e20
1e60
0e60
0f40
0fc0
0780
0780
0380
0300
0300
0300
3200
3c00
7c00
3800
ENDCHAR
STARTCHAR tcedilla
ENCODING 254
SWIDTH 370 0
DWIDTH 9 0
BBX 8 22 1 -6
BITMAP
18
38
38
fe
78
78
78
78
78
78
78
78
78
78
3f
1c
30
30
7c
1c
1c
70
ENDCHAR
STARTCHAR abovedot
ENCODING 255
SWIDTH 430 0
DWIDTH 11 0
BBX 4 4 3 14
BITMAP
60
f0
f0
60
ENDCHAR
ENDFONT
